<svg width="96" height="99" viewBox="0 0 96 99" fill="none" xmlns="http://www.w3.org/2000/svg">
<g filter="url(#filter0_d_122_2173)">
<rect x="13.3843" y="15.3483" width="48" height="48" rx="12" transform="rotate(-4 13.3843 15.3483)" fill="#7B61FF"/>
<rect x="13.3843" y="15.3483" width="48" height="48" rx="12" transform="rotate(-4 13.3843 15.3483)" fill="url(#paint0_linear_122_2173)"/>
</g>
<g filter="url(#filter1_d_122_2173)">
<rect x="24" y="23.6157" width="48" height="48" rx="12" fill="#18A0FB"/>
<rect x="24" y="23.6157" width="48" height="48" rx="12" fill="url(#paint1_linear_122_2173)"/>
</g>
<g filter="url(#filter2_d_122_2173)">
<path d="M33.3931 51.1532C33.8619 44.449 34.0963 41.0969 35.5801 38.6274C36.8853 36.4552 38.8446 34.752 41.1773 33.7618C43.8293 32.6361 47.1814 32.8705 53.8857 33.3393L63.4623 34.009C70.1665 34.4778 73.5187 34.7122 75.9881 36.196C78.1603 37.5012 79.8635 39.4605 80.8537 41.7932C81.9794 44.4452 81.745 47.7973 81.2762 54.5016L80.7181 62.4821C80.2102 69.745 79.9563 73.3765 78.3489 76.0517C76.9349 78.4049 74.8123 80.2501 72.2852 81.3228C69.4123 82.5423 65.7808 82.2883 58.5179 81.7805L50.5373 81.2224C43.8331 80.7536 40.481 80.5192 38.0115 79.0354C35.8393 77.7302 34.1361 75.7709 33.1459 73.4382C32.0202 70.7862 32.2546 67.4341 32.7234 60.7299L33.3931 51.1532Z" fill="#1BC47D"/>
<path d="M33.3931 51.1532C33.8619 44.449 34.0963 41.0969 35.5801 38.6274C36.8853 36.4552 38.8446 34.752 41.1773 33.7618C43.8293 32.6361 47.1814 32.8705 53.8857 33.3393L63.4623 34.009C70.1665 34.4778 73.5187 34.7122 75.9881 36.196C78.1603 37.5012 79.8635 39.4605 80.8537 41.7932C81.9794 44.4452 81.745 47.7973 81.2762 54.5016L80.7181 62.4821C80.2102 69.745 79.9563 73.3765 78.3489 76.0517C76.9349 78.4049 74.8123 80.2501 72.2852 81.3228C69.4123 82.5423 65.7808 82.2883 58.5179 81.7805L50.5373 81.2224C43.8331 80.7536 40.481 80.5192 38.0115 79.0354C35.8393 77.7302 34.1361 75.7709 33.1459 73.4382C32.0202 70.7862 32.2546 67.4341 32.7234 60.7299L33.3931 51.1532Z" fill="url(#paint2_linear_122_2173)"/>
</g>
<rect x="43.1255" y="40.9917" width="8" height="8" rx="4" transform="rotate(4 43.1255 40.9917)" fill="white" fill-opacity="0.8"/>
<rect x="41.3584" y="53.9649" width="29" height="4" rx="2" transform="rotate(4 41.3584 53.9649)" fill="white" fill-opacity="0.4"/>
<rect x="40.7305" y="59.9781" width="21" height="4" rx="2" transform="rotate(4 40.7305 59.9781)" fill="white" fill-opacity="0.4"/>
<defs>
<filter id="filter0_d_122_2173" x="0.334793" y="0.95052" width="77.3304" height="77.3303" filterUnits="userSpaceOnUse" color-interpolation-filters="sRGB">
<feFlood flood-opacity="0" result="BackgroundImageFix"/>
<feColorMatrix in="SourceAlpha" type="matrix" values="0 0 0 0 0 0 0 0 0 0 0 0 0 0 0 0 0 0 127 0" result="hardAlpha"/>
<feOffset dy="2"/>
<feGaussianBlur stdDeviation="7"/>
<feColorMatrix type="matrix" values="0 0 0 0 0 0 0 0 0 0 0 0 0 0 0 0 0 0 0.15 0"/>
<feBlend mode="normal" in2="BackgroundImageFix" result="effect1_dropShadow_122_2173"/>
<feBlend mode="normal" in="SourceGraphic" in2="effect1_dropShadow_122_2173" result="shape"/>
</filter>
<filter id="filter1_d_122_2173" x="10" y="11.6157" width="76" height="76" filterUnits="userSpaceOnUse" color-interpolation-filters="sRGB">
<feFlood flood-opacity="0" result="BackgroundImageFix"/>
<feColorMatrix in="SourceAlpha" type="matrix" values="0 0 0 0 0 0 0 0 0 0 0 0 0 0 0 0 0 0 127 0" result="hardAlpha"/>
<feOffset dy="2"/>
<feGaussianBlur stdDeviation="7"/>
<feColorMatrix type="matrix" values="0 0 0 0 0 0 0 0 0 0 0 0 0 0 0 0 0 0 0.15 0"/>
<feBlend mode="normal" in2="BackgroundImageFix" result="effect1_dropShadow_122_2173"/>
<feBlend mode="normal" in="SourceGraphic" in2="effect1_dropShadow_122_2173" result="shape"/>
</filter>
<filter id="filter2_d_122_2173" x="18.3346" y="20.9505" width="77.3304" height="77.2511" filterUnits="userSpaceOnUse" color-interpolation-filters="sRGB">
<feFlood flood-opacity="0" result="BackgroundImageFix"/>
<feColorMatrix in="SourceAlpha" type="matrix" values="0 0 0 0 0 0 0 0 0 0 0 0 0 0 0 0 0 0 127 0" result="hardAlpha"/>
<feOffset dy="2"/>
<feGaussianBlur stdDeviation="7"/>
<feColorMatrix type="matrix" values="0 0 0 0 0 0 0 0 0 0 0 0 0 0 0 0 0 0 0.15 0"/>
<feBlend mode="normal" in2="BackgroundImageFix" result="effect1_dropShadow_122_2173"/>
<feBlend mode="normal" in="SourceGraphic" in2="effect1_dropShadow_122_2173" result="shape"/>
</filter>
<linearGradient id="paint0_linear_122_2173" x1="37.3843" y1="15.3483" x2="37.3843" y2="63.3483" gradientUnits="userSpaceOnUse">
<stop offset="0.0001" stop-color="white" stop-opacity="0.32"/>
<stop offset="1" stop-color="white" stop-opacity="0"/>
</linearGradient>
<linearGradient id="paint1_linear_122_2173" x1="48" y1="23.6157" x2="48" y2="71.6157" gradientUnits="userSpaceOnUse">
<stop offset="0.0001" stop-color="white" stop-opacity="0.32"/>
<stop offset="1" stop-color="white" stop-opacity="0"/>
</linearGradient>
<linearGradient id="paint2_linear_122_2173" x1="58.674" y1="33.6742" x2="55.3256" y2="81.5572" gradientUnits="userSpaceOnUse">
<stop offset="0.0001" stop-color="white" stop-opacity="0.32"/>
<stop offset="1" stop-color="white" stop-opacity="0"/>
</linearGradient>
</defs>
</svg>
