<svg width="86" height="20" viewBox="0 0 86 20" fill="none" xmlns="http://www.w3.org/2000/svg">
<path d="M29.4726 14.825C32.7374 14.825 34.9858 12.5304 34.9858 9.21943C34.9858 5.86223 32.6912 3.56763 29.3648 3.56763H25.4224V14.825H29.4726ZM29.18 5.38482C31.5054 5.38482 32.9068 6.83242 32.9068 9.21943C32.9068 11.5602 31.5362 13.0078 29.2878 13.0078H27.3936V5.38482H29.18ZM37.4842 5.69282C38.1002 5.69282 38.6084 5.18462 38.6084 4.55322C38.6084 3.92183 38.1002 3.42902 37.4842 3.42902C36.8374 3.42902 36.3292 3.92183 36.3292 4.55322C36.3292 5.18462 36.8374 5.69282 37.4842 5.69282ZM36.5448 14.825H38.4236V7.21743H36.5448V14.825ZM42.6285 15.0252C43.8143 15.0252 44.8461 14.4862 45.1695 13.7008L45.3081 14.825H46.9559V10.205C46.9559 8.09523 45.6931 6.98643 43.6449 6.98643C41.5813 6.98643 40.2261 8.06443 40.2261 9.71223H41.8277C41.8277 8.91143 42.4437 8.44943 43.5525 8.44943C44.5073 8.44943 45.1233 8.86523 45.1233 9.89703V10.0664L42.8441 10.2358C41.0423 10.3744 40.0259 11.2522 40.0259 12.6536C40.0259 14.0858 41.0115 15.0252 42.6285 15.0252ZM43.2445 13.6084C42.3975 13.6084 41.9355 13.2696 41.9355 12.5766C41.9355 11.9606 42.3821 11.5756 43.5525 11.4678L45.1387 11.3446V11.745C45.1387 12.9154 44.3995 13.6084 43.2445 13.6084ZM48.3704 10.8518C48.3704 13.054 49.7872 14.671 51.9432 14.671C53.0366 14.671 53.976 14.2244 54.4534 13.516V14.7788C54.4534 16.0416 53.6218 16.8578 52.3282 16.8578C51.1732 16.8578 50.4186 16.2726 50.2954 15.287H48.4166C48.6476 17.3198 50.1414 18.5672 52.3282 18.5672C54.7922 18.5672 56.3168 16.981 56.3168 14.44V7.21743H54.5766L54.4688 8.26463C54.0222 7.44843 53.129 6.97102 51.9894 6.97102C49.818 6.97102 48.3704 8.63423 48.3704 10.8518ZM50.2646 10.8056C50.2646 9.55823 51.0654 8.61883 52.3128 8.61883C53.6218 8.61883 54.4072 9.51203 54.4072 10.8056C54.4072 12.13 53.6064 13.0386 52.3128 13.0386C51.0808 13.0386 50.2646 12.0838 50.2646 10.8056ZM63.0352 7.18663C62.7272 7.10962 62.4654 7.07883 62.2036 7.07883C61.1872 7.07883 60.4634 7.58703 60.14 8.34163L60.0322 7.23283H58.2612V14.825H60.14V11.129C60.14 9.65063 60.987 8.92683 62.3422 8.92683H63.0352V7.18663ZM66.2699 15.0252C67.4557 15.0252 68.4875 14.4862 68.8109 13.7008L68.9495 14.825H70.5973V10.205C70.5973 8.09523 69.3345 6.98643 67.2863 6.98643C65.2227 6.98643 63.8675 8.06443 63.8675 9.71223H65.4691C65.4691 8.91143 66.0851 8.44943 67.1939 8.44943C68.1487 8.44943 68.7647 8.86523 68.7647 9.89703V10.0664L66.4855 10.2358C64.6837 10.3744 63.6673 11.2522 63.6673 12.6536C63.6673 14.0858 64.6529 15.0252 66.2699 15.0252ZM66.8859 13.6084C66.0389 13.6084 65.5769 13.2696 65.5769 12.5766C65.5769 11.9606 66.0235 11.5756 67.1939 11.4678L68.7801 11.3446V11.745C68.7801 12.9154 68.0409 13.6084 66.8859 13.6084ZM74.3218 14.825V10.513C74.3218 9.28103 75.0456 8.69583 75.9388 8.69583C76.832 8.69583 77.4018 9.26563 77.4018 10.3282V14.825H79.2806V10.513C79.2806 9.26563 79.9736 8.68043 80.8822 8.68043C81.7754 8.68043 82.3606 9.25023 82.3606 10.3436V14.825H84.2241V9.85083C84.2241 8.09523 83.2076 6.98643 81.3596 6.98643C80.2046 6.98643 79.3114 7.55623 78.9264 8.43403C78.526 7.55623 77.7252 6.98643 76.5702 6.98643C75.4768 6.98643 74.7068 7.47923 74.3218 8.11063L74.1678 7.21743H72.443V14.825H74.3218Z" fill="black" fill-opacity="0.32"/>
<path fill-rule="evenodd" clip-rule="evenodd" d="M10 17C14.4183 17 18 13.4183 18 9C18 4.58172 14.4183 1 10 1C5.58172 1 2 4.58172 2 9C2 13.4183 5.58172 17 10 17ZM10.7975 14.4426C13.4571 14.0563 15.5 11.7667 15.5 9C15.5 6.23328 13.4571 3.9437 10.7975 3.55739C10.5603 3.52294 10.4417 3.50572 10.3191 3.55332C10.2206 3.59153 10.1167 3.68146 10.0647 3.77338C10 3.88789 10 4.02526 10 4.3V13.7C10 13.9747 10 14.1121 10.0647 14.2266C10.1167 14.3185 10.2206 14.4085 10.3191 14.4467C10.4417 14.4943 10.5603 14.4771 10.7975 14.4426Z" fill="black" fill-opacity="0.32"/>
</svg>
