<svg width="65" height="20" viewBox="0 0 65 20" fill="none" xmlns="http://www.w3.org/2000/svg">
<path d="M22 3V14.6926L23.5445 14.7041V9.13347H27.2702V7.66328H23.5445V4.4702H28.3903V3H22ZM31.1727 5.37758C31.7269 5.37758 32.1867 4.94112 32.1867 4.38979C32.1867 3.83847 31.7387 3.40201 31.1727 3.40201C30.6186 3.40201 30.1588 3.83847 30.1588 4.38979C30.1588 4.94112 30.6068 5.37758 31.1727 5.37758ZM30.3828 6.84778V14.7041H31.9273V6.84778H30.3828ZM37.6573 6.61806C35.6058 6.61806 34.1792 8.30649 34.1792 10.3165C34.1792 12.3266 35.6058 14.015 37.6573 14.015C38.6005 14.015 39.3669 13.6704 39.9328 13.0846V14.1298C39.9446 15.4277 38.8835 16.5074 37.5394 16.5189C37.5276 16.5189 37.5276 16.5189 37.5158 16.5189C37.0206 16.5189 36.5372 16.3351 36.1482 16.071L35.37 17.3803C37.2093 18.5404 39.6616 18.0236 40.8406 16.2318C41.2533 15.6 41.4773 14.8764 41.4773 14.1298V6.85926H39.9328V7.5599C39.3669 6.97412 38.6005 6.61806 37.6573 6.61806ZM35.7237 10.3165C35.7237 9.06456 36.7023 8.08825 37.8342 8.08825C38.966 8.08825 39.9328 9.07604 39.9328 10.3165C39.9328 11.5685 38.9542 12.5333 37.8342 12.5333C36.7023 12.5333 35.7237 11.557 35.7237 10.3165ZM47.0422 8.08825C46.1226 8.09974 45.3798 8.83484 45.3916 9.73074V14.6926H43.8471V6.83629H45.3916V7.5599C45.8632 6.95115 46.5942 6.60657 47.3842 6.61806C48.4689 6.61806 49.306 7.13492 49.7776 7.93894C50.3199 7.12344 51.2395 6.62954 52.2299 6.61806C53.9866 6.61806 55.0831 7.99636 55.0831 9.70776V14.6926H53.5504V9.73074C53.5504 8.83484 52.8194 8.09974 51.8998 8.08825C50.9802 8.09974 50.2374 8.83484 50.2492 9.73074V14.6926H48.6929V9.73074C48.6929 8.83484 47.9619 8.09974 47.0422 8.08825ZM63.3126 7.73219C62.6052 7.00858 61.6149 6.60657 60.5891 6.61806C58.29 6.61806 56.663 8.51323 56.663 10.7645C56.663 13.0272 58.29 14.9109 60.5891 14.9109C61.6149 14.9109 62.5934 14.5089 63.3126 13.7967V14.6926H64.8571V6.83629H63.3126V7.73219ZM58.2075 10.7645C58.2075 9.2713 59.3865 8.07677 60.766 8.07677C62.1336 8.08825 63.3126 9.2713 63.3126 10.7645C63.3126 12.2576 62.1336 13.4407 60.7542 13.4407C59.3983 13.4522 58.2075 12.2691 58.2075 10.7645Z" fill="black" fill-opacity="0.32"/>
<path fill-rule="evenodd" clip-rule="evenodd" d="M5.375 2.25C4.87772 2.25 4.40081 2.44754 4.04917 2.79917C3.69754 3.15081 3.5 3.62772 3.5 4.125C3.5 4.62228 3.69754 5.09919 4.04917 5.45082C4.40081 5.80246 4.87772 6 5.375 6H7.25V2.25H5.375ZM7.25 12.75H5.375C4.87772 12.75 4.40081 12.9475 4.04917 13.2992C3.69754 13.6508 3.5 14.1277 3.5 14.625C3.5 15.1223 3.69754 15.5992 4.04917 15.9508C4.40081 16.3025 4.87772 16.5 5.375 16.5C5.87228 16.5 6.34919 16.3025 6.70082 15.9508C7.05246 15.5992 7.25 15.1223 7.25 14.625V12.75ZM3.25366 12C3.16156 12.0744 3.07303 12.154 2.98851 12.2385C2.35558 12.8714 2 13.7299 2 14.625C2 15.5201 2.35558 16.3786 2.98851 17.0115C3.62145 17.6444 4.47989 18 5.375 18C6.27011 18 7.12855 17.6444 7.76149 17.0115C8.39442 16.3786 8.75 15.5201 8.75 14.625V12.1812C8.93336 12.3038 9.12873 12.4083 9.33344 12.4931C9.74292 12.6627 10.1818 12.75 10.625 12.75C11.0682 12.75 11.5071 12.6627 11.9166 12.4931C12.326 12.3235 12.6981 12.0749 13.0115 11.7615C13.3249 11.4481 13.5735 11.076 13.7431 10.6666C13.9127 10.2571 14 9.81821 14 9.375C14 8.93179 13.9127 8.49292 13.7431 8.08344C13.5735 7.67397 13.3249 7.30191 13.0115 6.98851C12.9272 6.90423 12.8387 6.82464 12.7463 6.75C12.8387 6.67537 12.9272 6.59577 13.0115 6.51149C13.3249 6.19809 13.5735 5.82603 13.7431 5.41656C13.9127 5.00708 14 4.56821 14 4.125C14 3.68179 13.9127 3.24292 13.7431 2.83344C13.5735 2.42397 13.3249 2.05191 13.0115 1.73851C12.6981 1.42512 12.326 1.17652 11.9166 1.00691C11.5071 0.837297 11.0682 0.75 10.625 0.75H8H5.375C4.47989 0.75 3.62145 1.10558 2.98851 1.73851C2.35558 2.37145 2 3.22989 2 4.125C2 5.02011 2.35558 5.87855 2.98851 6.51149C3.07303 6.596 3.16156 6.67557 3.25366 6.75C3.16156 6.82444 3.07303 6.904 2.98851 6.98851C2.35558 7.62145 2 8.47989 2 9.375C2 10.2701 2.35558 11.1285 2.98851 11.7615C3.07303 11.846 3.16156 11.9256 3.25366 12ZM5.375 7.5C4.87772 7.5 4.40081 7.69754 4.04917 8.04917C3.69754 8.40081 3.5 8.87772 3.5 9.375C3.5 9.87228 3.69754 10.3492 4.04917 10.7008C4.40081 11.0525 4.87772 11.25 5.375 11.25H7.25V9.375V7.5H5.375ZM8.75 9.375C8.75 9.62123 8.7985 9.86505 8.89273 10.0925C8.98695 10.32 9.12506 10.5267 9.29917 10.7008C9.47329 10.8749 9.67998 11.013 9.90747 11.1073C10.135 11.2015 10.3788 11.25 10.625 11.25C10.8712 11.25 11.115 11.2015 11.3425 11.1073C11.57 11.013 11.7767 10.8749 11.9508 10.7008C12.1249 10.5267 12.263 10.32 12.3573 10.0925C12.4515 9.86505 12.5 9.62123 12.5 9.375C12.5 9.12877 12.4515 8.88495 12.3573 8.65747C12.263 8.42998 12.1249 8.22328 11.9508 8.04917C11.7767 7.87507 11.57 7.73695 11.3425 7.64273C11.115 7.5485 10.8712 7.5 10.625 7.5C10.3788 7.5 10.135 7.5485 9.90747 7.64273C9.67998 7.73695 9.47329 7.87506 9.29917 8.04917C9.12506 8.22329 8.98695 8.42998 8.89273 8.65747C8.7985 8.88495 8.75 9.12877 8.75 9.375ZM10.625 6C10.8712 6 11.115 5.9515 11.3425 5.85727C11.57 5.76305 11.7767 5.62493 11.9508 5.45082C12.1249 5.27672 12.263 5.07002 12.3573 4.84253C12.4515 4.61505 12.5 4.37123 12.5 4.125C12.5 3.87877 12.4515 3.63495 12.3573 3.40747C12.263 3.17998 12.1249 2.97328 11.9508 2.79917C11.7767 2.62507 11.57 2.48695 11.3425 2.39273C11.115 2.2985 10.8712 2.25 10.625 2.25H8.75V6H10.625Z" fill="black" fill-opacity="0.32"/>
</svg>
