<svg width="44" height="44" viewBox="0 0 44 44" fill="none" xmlns="http://www.w3.org/2000/svg">
<path fill-rule="evenodd" clip-rule="evenodd" d="M24.8934 34.44L34.4534 24.88C34.9501 24.3803 35.2289 23.7045 35.2289 23C35.2289 22.2955 34.9501 21.6196 34.4534 21.12L23.0001 9.66663H9.66675V23L21.1201 34.44C21.3677 34.6879 21.6618 34.8846 21.9856 35.0188C22.3093 35.153 22.6563 35.2221 23.0067 35.2221C23.3572 35.2221 23.7042 35.153 24.0279 35.0188C24.3517 34.8846 24.6458 34.6879 24.8934 34.44ZM15.25 18.5C17.0449 18.5 18.5 17.0449 18.5 15.25C18.5 13.4551 17.0449 12 15.25 12C13.4551 12 12 13.4551 12 15.25C12 17.0449 13.4551 18.5 15.25 18.5Z" fill="white"/>
<path d="M34.4534 24.88L35.3962 25.8228L35.399 25.82L34.4534 24.88ZM24.8934 34.44L23.9506 33.4971L23.9501 33.4977L24.8934 34.44ZM34.4534 21.12L35.399 20.18L35.3962 20.1771L34.4534 21.12ZM23.0001 9.66663L23.9429 8.72382C23.6928 8.47377 23.3537 8.33329 23.0001 8.33329V9.66663ZM9.66675 9.66663V8.33329C8.93037 8.33329 8.33341 8.93025 8.33341 9.66663H9.66675ZM9.66675 23H8.33341C8.33341 23.3538 8.4741 23.6932 8.72449 23.9433L9.66675 23ZM21.1201 34.44L22.0634 33.4977L22.0623 33.4966L21.1201 34.44ZM33.5106 23.9371L23.9506 33.4971L25.8362 35.3828L35.3962 25.8228L33.5106 23.9371ZM33.8955 23C33.8955 23.3522 33.7561 23.6901 33.5078 23.94L35.399 25.82C36.144 25.0705 36.5622 24.0567 36.5622 23H33.8955ZM33.5078 22.06C33.7561 22.3098 33.8955 22.6477 33.8955 23H36.5622C36.5622 21.9432 36.144 20.9294 35.399 20.18L33.5078 22.06ZM22.0573 10.6094L33.5106 22.0628L35.3962 20.1771L23.9429 8.72382L22.0573 10.6094ZM9.66675 11H23.0001V8.33329H9.66675V11ZM11.0001 23V9.66663H8.33341V23H11.0001ZM22.0623 33.4966L10.609 22.0566L8.72449 23.9433L20.1778 35.3833L22.0623 33.4966ZM22.4962 33.7871C22.3343 33.72 22.1872 33.6216 22.0634 33.4977L20.1767 35.3822C20.5482 35.7541 20.9894 36.0492 21.475 36.2505L22.4962 33.7871ZM23.0067 33.8887C22.8315 33.8887 22.658 33.8542 22.4962 33.7871L21.475 36.2505C21.9606 36.4518 22.4811 36.5554 23.0067 36.5554V33.8887ZM23.5173 33.7871C23.3555 33.8542 23.182 33.8887 23.0067 33.8887V36.5554C23.5324 36.5554 24.0529 36.4518 24.5385 36.2505L23.5173 33.7871ZM23.9501 33.4977C23.8262 33.6216 23.6792 33.72 23.5173 33.7871L24.5385 36.2505C25.0241 36.0492 25.4653 35.7541 25.8367 35.3822L23.9501 33.4977ZM17.1667 15.25C17.1667 16.3085 16.3085 17.1667 15.25 17.1667V19.8333C17.7813 19.8333 19.8333 17.7813 19.8333 15.25H17.1667ZM15.25 13.3333C16.3085 13.3333 17.1667 14.1915 17.1667 15.25H19.8333C19.8333 12.7187 17.7813 10.6667 15.25 10.6667V13.3333ZM13.3333 15.25C13.3333 14.1915 14.1915 13.3333 15.25 13.3333V10.6667C12.7187 10.6667 10.6667 12.7187 10.6667 15.25H13.3333ZM15.25 17.1667C14.1915 17.1667 13.3333 16.3085 13.3333 15.25H10.6667C10.6667 17.7813 12.7187 19.8333 15.25 19.8333V17.1667Z" fill="white"/>
</svg>
