<svg width="44" height="44" viewBox="0 0 44 44" fill="none" xmlns="http://www.w3.org/2000/svg">
<g clip-path="url(#clip0_12_303)">
<path d="M38.5972 11.4609C38.6849 11.1003 38.54 10.723 38.2332 10.5142C37.9264 10.3053 37.5221 10.3087 37.2189 10.5226C36.1918 11.2471 35.0683 11.8227 33.882 12.233C33.035 11.4179 31.9868 10.8356 30.8397 10.5486C29.498 10.2129 28.0855 10.2973 26.7932 10.7905C25.501 11.2838 24.3913 12.162 23.6145 13.3063C22.8388 14.449 22.4322 15.8021 22.4494 17.183V17.5892C20.594 17.514 18.7724 17.0437 17.1078 16.2059C15.1844 15.2378 13.5303 13.809 12.2928 12.0469C12.1085 11.7844 11.7972 11.6414 11.478 11.6724C11.1587 11.7035 10.8809 11.9039 10.7506 12.197L11.5642 12.5586C10.7506 12.197 10.7502 12.1979 10.7502 12.1979L10.7496 12.1991L10.7482 12.2023L10.744 12.212L10.7302 12.2441C10.7187 12.2711 10.7028 12.3092 10.6831 12.3578C10.6437 12.4551 10.5892 12.5947 10.525 12.7721C10.3968 13.1266 10.2297 13.6338 10.0685 14.2574C9.74701 15.5003 9.44297 17.2279 9.52994 19.141C9.61707 21.058 10.0981 23.1797 11.364 25.1785C12.4172 26.8414 13.9902 28.382 16.2579 29.642C14.0295 30.8208 11.5204 31.3958 8.9828 31.2948C8.57082 31.2785 8.20148 31.5472 8.09014 31.9441C7.97881 32.341 8.1546 32.7625 8.51503 32.9628C14.649 36.3706 21.5115 36.3926 26.8655 33.543C32.2413 30.6816 36.0057 24.9728 36.0057 17.138V17.135C36.0048 16.874 35.989 16.6135 35.958 16.3546C37.2408 14.9784 38.1507 13.2938 38.5972 11.4609Z" fill="#1DA1F2"/>
<path d="M38.5972 11.4609L39.4622 11.6716L39.4622 11.6715L38.5972 11.4609ZM38.2332 10.5142L38.7342 9.77816L38.7342 9.77816L38.2332 10.5142ZM37.2189 10.5226L37.7321 11.2502L37.7321 11.2502L37.2189 10.5226ZM33.882 12.233L33.2647 12.8745C33.5059 13.1066 33.8568 13.1838 34.173 13.0744L33.882 12.233ZM30.8397 10.5486L30.6236 11.4123L30.6236 11.4123L30.8397 10.5486ZM26.7932 10.7905L26.4758 9.95872L26.4758 9.95872L26.7932 10.7905ZM23.6145 13.3063L22.8778 12.8063L22.8778 12.8063L23.6145 13.3063ZM22.4494 17.183L23.3398 17.183L23.3397 17.1719L22.4494 17.183ZM22.4494 17.5892L22.4134 18.4789C22.6556 18.4887 22.8913 18.3993 23.0661 18.2314C23.2409 18.0635 23.3398 17.8316 23.3398 17.5892H22.4494ZM17.1078 16.2059L16.7075 17.0012L16.7075 17.0012L17.1078 16.2059ZM12.2928 12.0469L11.5642 12.5586L11.5642 12.5586L12.2928 12.0469ZM11.478 11.6724L11.3918 10.7862L11.3917 10.7862L11.478 11.6724ZM10.7506 12.197L9.93699 11.8353C9.84108 12.0511 9.83482 12.2962 9.91958 12.5166C10.0044 12.737 10.1732 12.9147 10.389 13.0106L10.7506 12.197ZM11.2026 13.3722C11.652 13.5719 12.1781 13.3695 12.3778 12.9202C12.5775 12.4708 12.3752 11.9447 11.9258 11.745L11.2026 13.3722ZM10.7502 12.1979L11.5629 12.5617L11.5668 12.5527L10.7502 12.1979ZM10.7496 12.1991L9.93699 11.8353L9.93527 11.8392L10.7496 12.1991ZM10.7482 12.2023L9.93384 11.8425L9.93222 11.8462L10.7482 12.2023ZM10.744 12.212L9.92799 11.8558L9.92593 11.8606L10.744 12.212ZM10.7302 12.2441L9.91214 11.8927L9.91102 11.8953L10.7302 12.2441ZM10.6831 12.3578L9.85792 12.0234L9.85791 12.0235L10.6831 12.3578ZM10.525 12.7721L11.3623 13.0748L11.3623 13.0748L10.525 12.7721ZM10.0685 14.2574L9.20647 14.0344L9.20647 14.0344L10.0685 14.2574ZM9.52994 19.141L10.4194 19.1006L10.4194 19.1006L9.52994 19.141ZM11.364 25.1785L12.1162 24.7021L12.1162 24.7021L11.364 25.1785ZM16.2579 29.642L16.6742 30.429C16.963 30.2763 17.1449 29.9778 17.1482 29.6512C17.1516 29.3246 16.9759 29.0224 16.6904 28.8637L16.2579 29.642ZM8.9828 31.2948L9.0182 30.4052L9.01818 30.4052L8.9828 31.2948ZM8.09014 31.9441L7.23288 31.7036L7.23288 31.7036L8.09014 31.9441ZM8.51503 32.9628L8.08248 33.741L8.08264 33.7411L8.51503 32.9628ZM26.8655 33.543L27.2839 34.3289L27.2839 34.3289L26.8655 33.543ZM36.0057 17.135L36.8961 17.135L36.896 17.132L36.0057 17.135ZM35.958 16.3546L35.3067 15.7475C35.1279 15.9392 35.0428 16.2001 35.0739 16.4604L35.958 16.3546ZM39.4622 11.6715C39.6378 10.9505 39.348 10.196 38.7342 9.77816L37.7322 11.2502L37.7321 11.2503L39.4622 11.6715ZM38.7342 9.77816C38.1206 9.36051 37.3122 9.3672 36.7057 9.79508L37.7321 11.2502L37.7322 11.2502L38.7342 9.77816ZM36.7057 9.79507C35.747 10.4713 34.6983 11.0086 33.591 11.3915L34.173 13.0744C35.4383 12.6368 36.6366 12.023 37.7321 11.2502L36.7057 9.79507ZM34.4994 11.5914C33.5406 10.6688 32.3542 10.0098 31.0558 9.68488L30.6236 11.4123C31.6195 11.6615 32.5294 12.167 33.2647 12.8745L34.4994 11.5914ZM31.0558 9.68489C29.5371 9.30487 27.9384 9.40047 26.4758 9.95872L27.1107 11.6224C28.2326 11.1942 29.4588 11.1209 30.6236 11.4123L31.0558 9.68489ZM26.4758 9.95872C25.0131 10.517 23.7572 11.511 22.8778 12.8063L24.3511 13.8064C25.0255 12.813 25.9889 12.0506 27.1107 11.6224L26.4758 9.95872ZM22.8778 12.8063C21.9998 14.0997 21.5396 15.6311 21.5591 17.1941L23.3397 17.1719C23.3247 15.9731 23.6777 14.7984 24.3511 13.8064L22.8778 12.8063ZM21.5591 17.183V17.5892H23.3398V17.183H21.5591ZM22.4855 16.6996C20.7566 16.6295 19.0592 16.1913 17.5081 15.4106L16.7075 17.0012C18.4857 17.8962 20.4314 18.3985 22.4134 18.4789L22.4855 16.6996ZM17.5081 15.4106C15.7159 14.5085 14.1746 13.1772 13.0215 11.5352L11.5642 12.5586C12.8861 14.4409 14.653 15.9671 16.7075 17.0012L17.5081 15.4106ZM13.0215 11.5352C12.6528 11.0102 12.0302 10.7241 11.3918 10.7862L11.5642 12.5586L11.5642 12.5586L13.0215 11.5352ZM11.3917 10.7862C10.7532 10.8484 10.1975 11.2491 9.93699 11.8353L11.5642 12.5586L11.5642 12.5586L11.3917 10.7862ZM10.389 13.0106L11.2026 13.3722L11.9258 11.745L11.1122 11.3834L10.389 13.0106ZM11.9258 11.745C11.5189 11.5641 11.3146 11.4736 11.2118 11.4282C11.1606 11.4056 11.1336 11.3937 11.1189 11.3873C11.112 11.3843 11.1057 11.3816 11.1002 11.3792C11.0983 11.3784 11.0917 11.3756 11.0836 11.3723C11.0812 11.3714 11.0687 11.3663 11.0527 11.3605C11.048 11.3588 11.0231 11.3497 10.9906 11.3406C10.9803 11.3377 10.9315 11.3238 10.8674 11.3153C10.8424 11.312 10.7563 11.3008 10.6466 11.3136C10.5617 11.3278 10.4178 11.3719 10.3589 11.3981C10.1066 11.5827 9.93357 11.8431 10.7502 12.1979C11.5668 12.5527 11.3938 12.8131 11.1414 12.9977C11.0825 13.0239 10.9387 13.0681 10.8537 13.0822C10.7441 13.0951 10.658 13.0838 10.633 13.0805C10.5689 13.072 10.5201 13.0581 10.5098 13.0552C10.4773 13.0461 10.4524 13.037 10.4477 13.0353C10.4317 13.0295 10.4194 13.0245 10.4172 13.0237C10.4095 13.0205 10.4037 13.0181 10.4034 13.0179C10.4011 13.0169 10.4012 13.017 10.407 13.0195C10.4178 13.0242 10.4417 13.0347 10.4924 13.0571C10.5932 13.1016 10.7959 13.1914 11.2026 13.3722L11.9258 11.745ZM9.93754 11.8341L9.937 11.8353L11.5623 12.5629L11.5628 12.5617L9.93754 11.8341ZM9.93527 11.8392L9.93384 11.8425L11.5626 12.5622L11.564 12.559L9.93527 11.8392ZM9.93222 11.8462L9.928 11.8558L11.56 12.5682L11.5642 12.5585L9.93222 11.8462ZM9.92593 11.8606L9.91214 11.8927L11.5483 12.5955L11.5621 12.5634L9.92593 11.8606ZM9.91102 11.8953C9.89743 11.9273 9.87952 11.9701 9.85792 12.0234L11.5083 12.6922C11.5261 12.6482 11.54 12.6149 11.5494 12.5928L9.91102 11.8953ZM9.85791 12.0235C9.81455 12.1305 9.75594 12.2806 9.6877 12.4693L11.3623 13.0748C11.4224 12.9087 11.4728 12.7796 11.5083 12.6921L9.85791 12.0235ZM9.68771 12.4693C9.55146 12.8462 9.37568 13.3802 9.20647 14.0344L10.9304 14.4803C11.0838 13.8874 11.2422 13.407 11.3623 13.0748L9.68771 12.4693ZM9.20647 14.0344C8.87021 15.3346 8.54835 17.1542 8.64051 19.1814L10.4194 19.1006C10.3376 17.3015 10.6238 15.666 10.9304 14.4803L9.20647 14.0344ZM8.64051 19.1814C8.733 21.2163 9.24528 23.4972 10.6118 25.6549L12.1162 24.7021C10.9509 22.8622 10.5011 20.8997 10.4194 19.1006L8.64051 19.1814ZM10.6118 25.6549C11.7501 27.4522 13.4368 29.093 15.8255 30.4203L16.6904 28.8637C14.5437 27.6709 13.0843 26.2307 12.1162 24.7021L10.6118 25.6549ZM15.8416 28.855C13.7515 29.9606 11.3982 30.4999 9.0182 30.4052L8.9474 32.1845C11.6426 32.2917 14.3074 31.681 16.6742 30.429L15.8416 28.855ZM9.01818 30.4052C8.19412 30.3724 7.45554 30.9098 7.23288 31.7036L8.94741 32.1846L8.94742 32.1845L9.01818 30.4052ZM7.23288 31.7036C7.01015 32.4977 7.36188 33.3405 8.08248 33.741L8.94757 32.1846L8.94741 32.1845L7.23288 31.7036ZM8.08264 33.7411C14.4627 37.2856 21.6458 37.3298 27.2839 34.3289L26.4472 32.757C21.3773 35.4555 14.8353 35.4555 8.94742 32.1845L8.08264 33.7411ZM27.2839 34.3289C32.9654 31.3048 36.8961 25.2843 36.8961 17.138H35.1154C35.1154 24.6613 31.5172 30.0584 26.4472 32.757L27.2839 34.3289ZM36.8961 17.138V17.135H35.1154V17.138H36.8961ZM36.896 17.132C36.895 16.837 36.8771 16.5421 36.842 16.2488L35.0739 16.4604C35.1008 16.6848 35.1146 16.9111 35.1154 17.138L36.896 17.132ZM36.6093 16.9617C37.996 15.474 38.9796 13.653 39.4622 11.6716L37.7321 11.2502C37.3218 12.9347 36.4856 14.4828 35.3067 15.7475L36.6093 16.9617Z" fill="#1DA1F2"/>
</g>
<defs>
<clipPath id="clip0_12_303">
<rect width="33.8333" height="28.4912" fill="white" transform="translate(7.16669 9.45605)"/>
</clipPath>
</defs>
</svg>
